<?xml version="1.0" encoding="utf-8"?>
<!-- Generator: Adobe Illustrator 23.0.2, SVG Export Plug-In . SVG Version: 6.00 Build 0)  -->
<svg version="1.1" id="Layer_1" xmlns="http://www.w3.org/2000/svg" xmlns:xlink="http://www.w3.org/1999/xlink" x="0px" y="0px"
	 viewBox="0 0 5000 5000" style="enable-background:new 0 0 5000 5000;" xml:space="preserve">
<style type="text/css">
	.st0{fill:none;stroke:#000000;stroke-width:33.3384;stroke-miterlimit:10;}
	.st1{fill:#0071BC;}
	.st2{font-family:'Gotham-Bold';}
	.st3{font-size:384.9959px;}
	.st4{font-family:'CopperplateGothic-Bold';}
	.st5{font-size:551.1156px;}
	.st6{letter-spacing:41.02;}
	.st7{font-size:343.3026px;}
	.st8{fill:none;stroke:#0071BC;stroke-width:26.8;stroke-miterlimit:10;}
	.st9{fill:#2775AF;}
	.st10{fill:#216289;}
	.st11{fill:#FFE7BC;}
	.st12{fill:#E0C190;}
	.st13{fill:#2F8AC1;}
	.st14{fill:#FF4249;}
	.st15{fill:#00BD6E;}
	.st16{fill:#00020F;}
	.st17{fill:#1A222C;}
	.st18{fill:#79CFE1;}
	.st19{fill:#2F3944;}
	.st20{fill:#000001;}
	.st21{font-size:106.4605px;}
	.st22{letter-spacing:7.69;}
	.st23{font-size:66.3167px;}
</style>
<g>
	<path class="st0" d="M4816.37,3279.35c-1533.69,382.97-3067.39-399.09-4601.08-16.13c-17.47,4.36-31.63-6.09-31.63-23.56
		c0-497.61,0-995.21,0-1492.82c0-17.47,14.16-35.33,31.63-39.69c1533.69-382.97,3067.39,399.09,4601.08,16.13
		c17.47-4.36,31.63,6.09,31.63,23.57c0,497.61,0,995.21,0,1492.82C4848,3257.12,4833.84,3274.99,4816.37,3279.35z"/>
</g>
<text transform="matrix(1 0 0 1 3060.4316 2411.6831)" class="st1 st2 st3">Tuition</text>
<text transform="matrix(0.78 0 0 1 239.0405 2411.3188)" class="st4 st5 st6">MAFALDA</text>
<text transform="matrix(1 0 0 1 628.5205 2901.5498)" class="st4 st7">In Spanish</text>
<line class="st8" x1="2858.1" y1="2026.76" x2="2858.1" y2="3035.11"/>
<g>
	<polygon class="st9" points="3022.15,2544.96 3380,2690.51 3452.1,2690.51 3815.29,2544.96 3815.29,3045.68 3454.77,3192.56 
		3381.33,3192.56 3022.15,3048.35 	"/>
	<rect x="3381.33" y="2690.51" class="st10" width="70.77" height="502.05"/>
	<path class="st11" d="M3022.15,2544.96c0,0,324.47,5.34,396.57,145.54c0,0,112.16-168.24,396.57-145.54l-363.19,145.54h-70.77
		L3022.15,2544.96z"/>
	<polygon class="st12" points="3022.15,2544.96 3418.72,2690.51 3381.33,2690.51 	"/>
	<polygon class="st12" points="3815.29,2544.96 3418.72,2690.51 3452.1,2690.51 	"/>
	<polygon class="st13" points="3452.1,2860.08 3815.29,2723.89 3815.29,2853.41 3452.1,3006.96 	"/>
	<polygon class="st13" points="3381.33,2865.42 3022.15,2729.85 3022.15,2859.62 3381.33,3014.31 	"/>
	<polygon class="st10" points="3183.05,2618.17 3183.05,2719.22 3206.77,2706.2 3230.5,2727.89 3230.5,2637.4 	"/>
	<polygon class="st14" points="3183.05,2610.16 3183.05,2711.2 3206.77,2698.19 3230.5,2719.88 3230.5,2629.39 	"/>
	<polygon class="st15" points="3545.81,2632.63 3594.06,2613.3 3594.06,2568.67 3569.94,2587.19 3545.81,2582.19 	"/>
	<polygon class="st13" points="3472.46,2723.89 3472.46,2822.03 3799.93,2704.86 3799.93,2600.65 	"/>
	<g>
		<path class="st10" d="M3644.24,3064.07c-0.01,0.95-0.61,1.87-1.81,2.76c-1.44,1.05-5.89,3.18-13.31,6.4
			c-6.76,2.93-11.09,4.6-13.02,5.02c-1.59,0.33-2.59-0.41-3-2.2c-1.55-6.81-2.77-10.28-3.66-10.41c-0.75-0.03-6.99,2.53-18.64,7.66
			c-7.8,3.43-11.93,5.48-12.44,6.16c-0.78,1.16-1.65,4.29-2.61,9.37c-0.87,4.63-1.92,7.38-3.15,8.27
			c-1.54,1.07-6.69,3.51-15.39,7.28c-6.82,2.95-10.22,3.69-10.22,2.22c0-1.31,5.03-19.71,15.19-55.54
			c11.17-39.31,17.3-61.14,18.27-65.04c0.56-2.25,1.2-3.55,1.94-3.9c1.24-0.6,3.17-1.39,5.78-2.38c2.61-0.99,4.58-1.8,5.88-2.42
			c1.26-0.6,3.11-1.58,5.56-2.94c2.46-1.36,4.29-2.33,5.51-2.92c0.89-0.43,1.71,0.05,2.45,1.43c2.28,4.45,8.92,20.28,19.97,47.58
			C3638.67,3048.09,3644.25,3062.65,3644.24,3064.07z M3594.47,3014.84c-0.98,2.75-2.64,8.48-4.98,17.19
			c-2.51,9.23-3.77,14.53-3.77,15.93c0,0.93,1.37,0.83,4.13-0.31c1.43-0.54,3.78-1.55,7.07-3.03c3.06-1.38,4.76-2.56,5.09-3.54
			c0.09-0.3,0.14-0.69,0.14-1.16c0.01-1.72-1.04-5.98-3.15-12.79C3596.95,3020.58,3595.43,3016.48,3594.47,3014.84z"/>
		<path class="st10" d="M3726.61,2989.47c-0.06,4.23,0.08,10.42,0.43,18.56c0.35,8.13,0.49,14.28,0.43,18.43
			c-0.03,2.19-0.95,3.75-2.74,4.69c-6.34,3.23-13.55,6.6-21.62,10.1c-0.96,0.42-1.58-0.86-1.87-3.83c-0.29-2.97-0.66-4.38-1.11-4.24
			c-0.4,0.39-0.94,1.08-1.6,2.07c-5.67,8.54-11.68,14.17-18.02,16.91c-9.59,4.15-17.45,3.47-23.61-2
			c-5.8-5.07-8.65-12.91-8.56-23.54c0.1-12.29,3.21-23.6,9.35-33.93c6.43-10.78,15.23-18.79,26.45-24.01
			c7.85-3.65,14.05-3.54,18.57,0.35c0.2,0.18,0.38,0.23,0.53,0.16c0.46-0.21,0.99-1.78,1.6-4.7c0.62-2.93,1.33-4.58,2.14-4.96
			c1.88-0.87,5.46-1.96,10.76-3.27c5.06-1.25,8.7-2,10.91-2.25c0.77-0.02,1.15,0.24,1.14,0.79c0,0.22-0.09,0.84-0.26,1.85
			C3727.74,2967.42,3726.77,2978.36,3726.61,2989.47z M3702.02,3001.01c0.06-4.63-1.25-7.85-3.9-9.65
			c-2.65-1.8-6.13-1.72-10.43,0.24c-4.28,1.95-7.75,5.01-10.41,9.17c-2.65,4.15-3.99,8.54-4.04,13.16c-0.04,4.35,1.3,7.47,4.03,9.36
			c2.74,1.89,6.09,1.96,10.06,0.2c4.24-1.87,7.73-4.92,10.47-9.13C3700.56,3010.14,3701.97,3005.69,3702.02,3001.01z"/>
	</g>
</g>
<g>
	<g>
		<path class="st16" d="M4675.97,2989.83c0,10.27-8.32,18.6-18.6,18.6h-629.68c-10.28,0-18.6-8.33-18.6-18.6v-407.94
			c0-10.28,8.32-18.6,18.6-18.6h629.68c10.28,0,18.6,8.32,18.6,18.6V2989.83z"/>
		<path class="st17" d="M4666.35,2975.53c0,9.62-8.08,17.41-18.06,17.41h-611.5c-9.98,0-18.07-7.8-18.07-17.41v-381.97
			c0-9.62,8.09-17.42,18.07-17.42h611.5c9.98,0,18.06,7.8,18.06,17.42V2975.53z"/>
		<rect x="4038.7" y="2591.94" class="st18" width="607.66" height="387.82"/>
		<polygon class="st17" points="4018.71,3008.43 3925.24,3119.61 4769.82,3119.61 4666.35,3008.43 		"/>
		<polygon class="st19" points="4039.01,3018.9 3993.79,3076.66 4702.92,3076.66 4653.01,3018.9 		"/>
		<polygon class="st19" points="4264.21,3089.1 4251.91,3104.81 4444.8,3104.81 4431.22,3089.1 		"/>
		<rect x="3925.24" y="3119.61" class="st20" width="844.58" height="26.33"/>
	</g>
</g>
<text transform="matrix(0.78 0 0 1 4115.4277 2772.4111)" class="st4 st21 st22">MAFALDA</text>
<text transform="matrix(1 0 0 1 4184.0977 2865.3721)" class="st4 st23">In Spanish</text>
</svg>
